<svg width="1440" height="240" viewBox="0 0 1440 240" fill="none" xmlns="http://www.w3.org/2000/svg"><path d="M480 0H360L240 120h120L240 240h240V0zm240 120L600 240H480V120L600 0h120v120zM960 0H840L720 120h120L720 240h240V0zm240 120l-120 120H960V120L1080 0h120v120z" fill="#000"/><path d="M579.873 215.083l-6.965 6.965-5.268-5.268 20.224-20.223 5.268 5.268-7.001 7.001 19.446 19.445-6.258 6.258-19.446-19.446zm46.515-6.563c-2.498 2.498-5.303 4.219-8.414 5.162-3.088.919-6.187 1.002-9.299.247-3.111-.801-5.928-2.463-8.45-4.985-2.522-2.522-4.183-5.338-4.985-8.45a17.43 17.43 0 01.212-9.333c.943-3.112 2.664-5.917 5.162-8.415 2.475-2.475 5.256-4.172 8.344-5.091 3.111-.943 6.223-1.014 9.334-.212 3.111.801 5.928 2.463 8.45 4.985 2.522 2.522 4.184 5.338 4.985 8.45.778 3.087.695 6.187-.248 9.298-.919 3.088-2.616 5.869-5.091 8.344zm-5.869-5.869c1.25-1.249 2.11-2.675 2.581-4.278.472-1.603.483-3.241.036-4.914-.448-1.674-1.379-3.218-2.793-4.632-1.415-1.414-2.947-2.333-4.597-2.758-1.65-.471-3.276-.471-4.879 0-1.626.448-3.076 1.309-4.348 2.581-1.297 1.297-2.169 2.758-2.617 4.384-.471 1.603-.483 3.241-.035 4.915.448 1.626 1.379 3.146 2.793 4.561 1.414 1.414 2.946 2.357 4.596 2.828 1.674.448 3.312.436 4.915-.035 1.626-.495 3.076-1.379 4.348-2.652zm-3.684-35.066l6.258-6.257 10.253 10.253-1.732-18.774 7.425-7.425 2.015 22.027 23.37 2.015-7.425 7.425-20.117-1.733 10.925 10.925-6.258 6.258-24.714-24.714zm47.824-17.205l-24.431-6.187 6.682-6.682 15.168 3.995-3.748-15.415 6.647-6.647 5.939 24.678 9.405 9.405-6.258 6.258-9.404-9.405zm37.619-17.75c-2.498 2.499-5.303 4.219-8.415 5.162-3.087.919-6.187 1.002-9.298.248-3.111-.802-5.928-2.463-8.45-4.985-2.522-2.522-4.184-5.339-4.985-8.45a17.434 17.434 0 01.212-9.334c.943-3.111 2.663-5.916 5.162-8.415 2.475-2.475 5.256-4.172 8.344-5.091 3.111-.943 6.222-1.013 9.334-.212 3.111.801 5.928 2.463 8.45 4.985 2.522 2.522 4.183 5.339 4.985 8.45.777 3.088.695 6.187-.248 9.298-.919 3.088-2.616 5.869-5.091 8.344zm-5.869-5.869c1.249-1.249 2.11-2.675 2.581-4.278.471-1.602.483-3.241.035-4.914-.448-1.674-1.379-3.217-2.793-4.632-1.414-1.414-2.946-2.333-4.596-2.757-1.65-.472-3.276-.472-4.879 0-1.626.448-3.076 1.308-4.349 2.581-1.296 1.296-2.168 2.757-2.616 4.384-.471 1.602-.483 3.241-.035 4.914.447 1.626 1.378 3.147 2.793 4.561 1.414 1.414 2.946 2.357 4.596 2.828 1.673.448 3.311.436 4.914-.035 1.627-.495 3.076-1.379 4.349-2.652zm389.701 93.835l.35-7.496.18-3.217c.17-2.616.25-4.655.25-6.116.02-1.485-.11-2.841-.39-4.066-.26-1.249-.75-2.239-1.49-2.97-2.19-2.192-4.52-2.051-7 .424a14.765 14.765 0 00-2.93 4.207 17.495 17.495 0 00-1.45 4.986l-5.98-5.976c.33-1.791 1.01-3.594 2.02-5.409.99-1.838 2.29-3.559 3.89-5.162 1.84-1.838 3.77-3.087 5.8-3.747 2.02-.66 3.99-.743 5.9-.248 1.91.495 3.62 1.497 5.13 3.005 1.81 1.815 2.98 3.83 3.5 6.046.52 2.169.69 5.032.53 8.591l-.28 6.011 9.22-9.228 5.13 5.127-18.81 18.809-3.57-3.571zm36.06-27.861c-2.28 2.286-4.79 3.783-7.53 4.49-2.75.683-5.57.53-8.45-.46-2.85-1.013-5.61-2.852-8.27-5.515-2.66-2.664-4.5-5.421-5.52-8.273-1.01-2.852-1.19-5.646-.53-8.38.69-2.757 2.2-5.303 4.53-7.636 2.33-2.334 4.87-3.831 7.6-4.491 2.76-.683 5.56-.518 8.42.495 2.85 1.014 5.61 2.852 8.27 5.516 2.66 2.663 4.49 5.433 5.48 8.308 1.01 2.852 1.18 5.657.49 8.415-.7 2.734-2.2 5.244-4.49 7.531zm-5.87-5.869c1.58-1.58 2.2-3.418 1.84-5.516-.35-2.098-1.61-4.231-3.78-6.399-2.19-2.192-4.35-3.477-6.47-3.854-2.12-.424-3.98.165-5.59 1.768-1.6 1.603-2.2 3.477-1.8 5.621.4 2.098 1.7 4.243 3.89 6.435 2.17 2.169 4.3 3.43 6.4 3.783 2.1.354 3.94-.259 5.51-1.838zm14.94-11.397l.35-7.495.18-3.217c.16-2.617.24-4.655.24-6.117.03-1.485-.1-2.84-.38-4.066-.26-1.249-.76-2.239-1.49-2.97-2.19-2.192-4.52-2.05-7 .425a14.75 14.75 0 00-2.93 4.207 17.173 17.173 0 00-1.45 4.985l-5.98-5.975c.33-1.791 1-3.594 2.02-5.409.99-1.839 2.28-3.559 3.89-5.162 1.83-1.839 3.77-3.088 5.79-3.748 2.03-.66 4-.742 5.91-.247 1.91.495 3.62 1.496 5.12 3.005 1.82 1.815 2.99 3.83 3.5 6.046.52 2.168.7 5.032.54 8.591l-.29 6.01 9.23-9.227 5.13 5.126-18.81 18.809-3.57-3.571zm36.06-27.861c-2.29 2.287-4.8 3.783-7.53 4.49-2.76.684-5.57.531-8.45-.459-2.85-1.014-5.61-2.852-8.27-5.516-2.67-2.663-4.51-5.421-5.52-8.273-1.01-2.852-1.19-5.645-.53-8.379.68-2.758 2.19-5.303 4.53-7.637 2.33-2.333 4.86-3.83 7.6-4.49 2.76-.683 5.56-.518 8.41.495 2.85 1.014 5.61 2.852 8.28 5.515 2.66 2.664 4.49 5.433 5.48 8.309 1.01 2.852 1.17 5.657.49 8.415-.71 2.734-2.2 5.244-4.49 7.53zm-5.87-5.869c1.58-1.579 2.19-3.417 1.84-5.515-.35-2.098-1.61-4.231-3.78-6.4-2.2-2.192-4.35-3.476-6.47-3.853-2.12-.424-3.99.165-5.59 1.768-1.6 1.602-2.2 3.476-1.8 5.621.4 2.098 1.69 4.243 3.89 6.435 2.17 2.168 4.3 3.429 6.4 3.783 2.09.353 3.93-.26 5.51-1.839z" fill="#fff"/></svg>