<svg width="1440" height="483" viewBox="0 0 1440 483" fill="none" xmlns="http://www.w3.org/2000/svg"><path d="M480 243L720 3H480v240zm240 0l120-120L720 3h240L840 123v120H720zm480-120V3H960v240l120-120h120zM1320 3l120 120-120 120-120-120L1320 3zM120 483h120V363H120l120-120H120L0 363l120 120zm360-120V243H240v240h240L360 363h120zm240-120L480 483h240V243zm240 120V243H720v240l120-120h120zm0 120l120-120 120 120V243l-120 120-120-120v240zm240 0l120-120-120-120h240l-120 120v120h-120zM22.195 22.625H.575V2.615H67.62v20.01H46V83H22.195V22.625zM98.671 52.41L69.346 2.615H94.76l15.87 27.715 16.905-27.715h25.3l-30.36 49.795V83H98.671V52.41zm58.102-49.795h37.03c9.66 0 17.327 2.492 23 7.475 5.75 4.907 8.625 11.96 8.625 21.16s-2.875 16.292-8.625 21.275c-5.673 4.983-13.34 7.475-23 7.475h-13.225v23h-23.805V2.615zm32.545 38.525c3.68 0 6.555-.728 8.625-2.185 2.07-1.457 3.105-4.025 3.105-7.705 0-3.603-1.035-6.133-3.105-7.59-2.07-1.457-4.945-2.185-8.625-2.185h-8.74V41.14h8.74zm81.398 43.585c-8.126 0-15.525-1.763-22.195-5.29-6.593-3.527-11.806-8.433-15.64-14.72-3.756-6.363-5.635-13.647-5.635-21.85 0-8.203 1.879-15.487 5.635-21.85 3.834-6.363 9.047-11.308 15.64-14.835 6.67-3.527 14.069-5.29 22.195-5.29 8.127 0 15.449 1.763 21.965 5.29 6.594 3.527 11.769 8.472 15.525 14.835 3.834 6.363 5.75 13.647 5.75 21.85 0 8.203-1.916 15.487-5.75 21.85-3.756 6.287-8.931 11.193-15.525 14.72-6.516 3.527-13.838 5.29-21.965 5.29zm0-22.31c3.527 0 6.709-.767 9.545-2.3 2.914-1.61 5.214-3.872 6.9-6.785 1.687-2.99 2.53-6.478 2.53-10.465 0-5.903-1.801-10.618-5.405-14.145-3.603-3.527-8.126-5.29-13.57-5.29-5.52 0-10.12 1.763-13.8 5.29-3.603 3.527-5.405 8.242-5.405 14.145 0 3.987.844 7.475 2.53 10.465 1.687 2.913 3.987 5.175 6.9 6.785 2.914 1.533 6.172 2.3 9.775 2.3zM46.46 164.725c-8.893 0-16.675-1.687-23.345-5.06-6.67-3.373-11.807-8.203-15.41-14.49-3.603-6.287-5.405-13.723-5.405-22.31 0-8.587 1.802-16.023 5.405-22.31 3.603-6.363 8.74-11.232 15.41-14.605 6.67-3.373 14.452-5.06 23.345-5.06 11.96 0 21.313 2.223 28.06 6.67v21.965c-3.373-2.53-7.168-4.37-11.385-5.52-4.217-1.15-9.085-1.725-14.605-1.725-7.207 0-12.688 1.802-16.445 5.405-3.68 3.603-5.52 8.663-5.52 15.18 0 6.823 1.763 11.998 5.29 15.525 3.603 3.45 8.778 5.175 15.525 5.175 3.297 0 5.98-.46 8.05-1.38V131.95H44.39v-15.065h32.775v40.25c-8.127 5.06-18.362 7.59-30.705 7.59zm37.652-82.11h37.375c9.66 0 17.288 2.453 22.885 7.36 5.596 4.83 8.395 11.845 8.395 21.045 0 5.98-1.265 11.078-3.795 15.295-2.454 4.217-5.98 7.437-10.58 9.66L151.847 163h-24.38l-11.73-23.575h-7.82V163H84.112V82.615zm32.66 37.95c3.68 0 6.516-.69 8.51-2.07 2.07-1.457 3.105-3.948 3.105-7.475 0-3.527-1.035-5.98-3.105-7.36-1.994-1.457-4.83-2.185-8.51-2.185h-8.855v19.09h8.855zm67.655-37.95h22.885L239.397 163h-24.38l-5.98-15.295h-26.335L176.607 163h-24.38l32.2-80.385zm19.09 47.035l-7.705-22.54-7.705 22.54h15.41zM4.6 162.615h37.03c9.66 0 17.327 2.492 23 7.475 5.75 4.907 8.625 11.96 8.625 21.16s-2.875 16.292-8.625 21.275c-5.673 4.983-13.34 7.475-23 7.475H28.405v23H4.6v-80.385zm32.545 38.525c3.68 0 6.555-.728 8.625-2.185 2.07-1.457 3.105-4.025 3.105-7.705 0-3.603-1.035-6.133-3.105-7.59-2.07-1.457-4.945-2.185-8.625-2.185h-8.74v19.665h8.74zm41.913-38.525h23.805v29.555h26.795v-29.555h23.805V243h-23.805v-30.82h-26.795V243H79.058v-80.385zm110.58 49.795l-29.325-49.795h25.415l15.87 27.715 16.905-27.715h25.3l-30.36 49.795V243h-23.805v-30.59z" fill="#000"/></svg>