<svg width="1440" height="240" viewBox="0 0 1440 240" fill="none" xmlns="http://www.w3.org/2000/svg">
<path d="M480 0H360L240 120H360L240 240H480V0ZM720 120L600 240H480V120L600 0H720V120ZM960 0H840L720 120H840L720 240H960V0ZM1200 120L1080 240H960V120L1080 0H1200V120Z" fill="black"/>
<path d="M579.873 215.083L572.908 222.048L567.64 216.78L587.864 196.557L593.132 201.825L586.131 208.826L605.577 228.271L599.319 234.529L579.873 215.083ZM626.388 208.52C623.89 211.018 621.085 212.739 617.974 213.682C614.886 214.601 611.787 214.684 608.675 213.929C605.564 213.128 602.747 211.466 600.225 208.944C597.703 206.422 596.042 203.606 595.24 200.494C594.462 197.36 594.533 194.248 595.452 191.161C596.395 188.049 598.116 185.244 600.614 182.746C603.089 180.271 605.87 178.574 608.958 177.655C612.069 176.712 615.181 176.641 618.292 177.443C621.403 178.244 624.22 179.906 626.742 182.428C629.264 184.95 630.926 187.766 631.727 190.878C632.505 193.965 632.422 197.065 631.479 200.176C630.56 203.264 628.863 206.045 626.388 208.52ZM620.519 202.651C621.769 201.402 622.629 199.976 623.1 198.373C623.572 196.77 623.583 195.132 623.136 193.459C622.688 191.785 621.757 190.241 620.343 188.827C618.928 187.413 617.396 186.494 615.746 186.069C614.096 185.598 612.47 185.598 610.867 186.069C609.241 186.517 607.791 187.378 606.519 188.65C605.222 189.947 604.35 191.408 603.902 193.034C603.431 194.637 603.419 196.275 603.867 197.949C604.315 199.575 605.246 201.095 606.66 202.51C608.074 203.924 609.606 204.867 611.256 205.338C612.93 205.786 614.568 205.774 616.171 205.303C617.797 204.808 619.247 203.924 620.519 202.651ZM616.835 167.585L623.093 161.328L633.346 171.581L631.614 152.807L639.039 145.382L641.054 167.409L664.424 169.424L656.999 176.849L636.882 175.116L647.807 186.041L641.549 192.299L616.835 167.585ZM664.659 150.38L640.228 144.193L646.91 137.511L662.078 141.506L658.33 126.091L664.977 119.444L670.916 144.122L680.321 153.527L674.063 159.785L664.659 150.38ZM702.278 132.63C699.78 135.129 696.975 136.849 693.863 137.792C690.776 138.711 687.676 138.794 684.565 138.04C681.454 137.238 678.637 135.577 676.115 133.055C673.593 130.533 671.931 127.716 671.13 124.605C670.352 121.47 670.423 118.359 671.342 115.271C672.285 112.16 674.005 109.355 676.504 106.856C678.979 104.381 681.76 102.684 684.848 101.765C687.959 100.822 691.07 100.752 694.182 101.553C697.293 102.354 700.11 104.016 702.632 106.538C705.154 109.06 706.815 111.877 707.617 114.988C708.394 118.076 708.312 121.175 707.369 124.286C706.45 127.374 704.753 130.155 702.278 132.63ZM696.409 126.761C697.658 125.512 698.519 124.086 698.99 122.483C699.461 120.881 699.473 119.242 699.025 117.569C698.577 115.895 697.646 114.352 696.232 112.937C694.818 111.523 693.286 110.604 691.636 110.18C689.986 109.708 688.36 109.708 686.757 110.18C685.131 110.628 683.681 111.488 682.408 112.761C681.112 114.057 680.24 115.518 679.792 117.145C679.321 118.747 679.309 120.386 679.757 122.059C680.204 123.685 681.135 125.206 682.55 126.62C683.964 128.034 685.496 128.977 687.146 129.448C688.819 129.896 690.457 129.884 692.06 129.413C693.687 128.918 695.136 128.034 696.409 126.761Z" fill="white"/>
<path d="M1086.11 220.596L1086.46 213.1L1086.64 209.883C1086.81 207.267 1086.89 205.228 1086.89 203.767C1086.91 202.282 1086.78 200.926 1086.5 199.701C1086.24 198.452 1085.75 197.462 1085.01 196.731C1082.82 194.539 1080.49 194.68 1078.01 197.155C1076.81 198.357 1075.83 199.76 1075.08 201.362C1074.35 202.942 1073.87 204.603 1073.63 206.348L1067.65 200.372C1067.98 198.581 1068.66 196.778 1069.67 194.963C1070.66 193.125 1071.96 191.404 1073.56 189.801C1075.4 187.963 1077.33 186.714 1079.36 186.054C1081.38 185.394 1083.35 185.311 1085.26 185.806C1087.17 186.301 1088.88 187.303 1090.39 188.811C1092.2 190.626 1093.37 192.641 1093.89 194.857C1094.41 197.026 1094.58 199.889 1094.42 203.448L1094.14 209.459L1103.36 200.231L1108.49 205.358L1089.68 224.167L1086.11 220.596ZM1122.17 192.735C1119.89 195.021 1117.38 196.518 1114.64 197.225C1111.89 197.908 1109.07 197.755 1106.19 196.765C1103.34 195.752 1100.58 193.913 1097.92 191.25C1095.26 188.586 1093.42 185.829 1092.4 182.977C1091.39 180.125 1091.21 177.331 1091.87 174.597C1092.56 171.84 1094.07 169.294 1096.4 166.961C1098.73 164.627 1101.27 163.13 1104 162.47C1106.76 161.787 1109.56 161.952 1112.42 162.965C1115.27 163.979 1118.03 165.817 1120.69 168.481C1123.35 171.144 1125.18 173.914 1126.17 176.789C1127.18 179.641 1127.35 182.446 1126.66 185.204C1125.96 187.938 1124.46 190.448 1122.17 192.735ZM1116.3 186.866C1117.88 185.286 1118.5 183.448 1118.14 181.35C1117.79 179.252 1116.53 177.119 1114.36 174.951C1112.17 172.759 1110.01 171.474 1107.89 171.097C1105.77 170.673 1103.91 171.262 1102.3 172.865C1100.7 174.468 1100.1 176.342 1100.5 178.486C1100.9 180.584 1102.2 182.729 1104.39 184.921C1106.56 187.09 1108.69 188.351 1110.79 188.704C1112.89 189.058 1114.73 188.445 1116.3 186.866ZM1131.24 175.469L1131.59 167.974L1131.77 164.757C1131.93 162.14 1132.01 160.102 1132.01 158.64C1132.04 157.155 1131.91 155.8 1131.63 154.574C1131.37 153.325 1130.87 152.335 1130.14 151.604C1127.95 149.412 1125.62 149.554 1123.14 152.029C1121.94 153.231 1120.96 154.633 1120.21 156.236C1119.48 157.815 1118.99 159.477 1118.76 161.221L1112.78 155.246C1113.11 153.455 1113.78 151.652 1114.8 149.837C1115.79 147.998 1117.08 146.278 1118.69 144.675C1120.52 142.836 1122.46 141.587 1124.48 140.927C1126.51 140.267 1128.48 140.185 1130.39 140.68C1132.3 141.175 1134.01 142.176 1135.51 143.685C1137.33 145.5 1138.5 147.515 1139.01 149.731C1139.53 151.899 1139.71 154.763 1139.55 158.322L1139.26 164.332L1148.49 155.105L1153.62 160.231L1134.81 179.04L1131.24 175.469ZM1167.3 147.608C1165.01 149.895 1162.5 151.391 1159.77 152.098C1157.01 152.782 1154.2 152.629 1151.32 151.639C1148.47 150.625 1145.71 148.787 1143.05 146.123C1140.38 143.46 1138.54 140.702 1137.53 137.85C1136.52 134.998 1136.34 132.205 1137 129.471C1137.68 126.713 1139.19 124.168 1141.53 121.834C1143.86 119.501 1146.39 118.004 1149.13 117.344C1151.89 116.661 1154.69 116.826 1157.54 117.839C1160.39 118.853 1163.15 120.691 1165.82 123.354C1168.48 126.018 1170.31 128.787 1171.3 131.663C1172.31 134.515 1172.47 137.32 1171.79 140.078C1171.08 142.812 1169.59 145.322 1167.3 147.608ZM1161.43 141.739C1163.01 140.16 1163.62 138.322 1163.27 136.224C1162.92 134.126 1161.66 131.993 1159.49 129.824C1157.29 127.632 1155.14 126.348 1153.02 125.971C1150.9 125.547 1149.03 126.136 1147.43 127.739C1145.83 129.341 1145.23 131.215 1145.63 133.36C1146.03 135.458 1147.32 137.603 1149.52 139.795C1151.69 141.963 1153.82 143.224 1155.92 143.578C1158.01 143.931 1159.85 143.318 1161.43 141.739Z" fill="white"/>
</svg>
