<svg width="1440" height="483" viewBox="0 0 1440 483" fill="none" xmlns="http://www.w3.org/2000/svg">
<path d="M480 243L720 3H480V243ZM720 243L840 123L720 3H960L840 123V243H720ZM1200 123V3H960V243L1080 123H1200ZM1320 3L1440 123L1320 243L1200 123L1320 3ZM120 483H240V363H120L240 243H120L0 363L120 483ZM480 363V243H240V483H480L360 363H480ZM720 243L480 483H720V243ZM960 363V243H720V483L840 363H960ZM960 483L1080 363L1200 483V243L1080 363L960 243V483ZM1200 483L1320 363L1200 243H1440L1320 363V483H1200Z" fill="black"/>
<path d="M22.195 22.625L0.575 22.625L0.575 2.61499L67.62 2.61499V22.625L46 22.625L46 83L22.195 83L22.195 22.625ZM98.6709 52.41L69.3459 2.61499L94.7609 2.61499L110.631 30.33L127.536 2.61499L152.836 2.61499L122.476 52.41V83H98.6709V52.41ZM156.773 2.61499L193.803 2.61499C203.463 2.61499 211.13 5.10666 216.803 10.09C222.553 14.9967 225.428 22.05 225.428 31.25C225.428 40.45 222.553 47.5417 216.803 52.525C211.13 57.5083 203.463 60 193.803 60H180.578V83H156.773V2.61499ZM189.318 41.14C192.998 41.14 195.873 40.4117 197.943 38.955C200.013 37.4983 201.048 34.93 201.048 31.25C201.048 27.6467 200.013 25.1167 197.943 23.66C195.873 22.2033 192.998 21.475 189.318 21.475L180.578 21.475V41.14H189.318ZM270.716 84.725C262.59 84.725 255.191 82.9617 248.521 79.435C241.928 75.9083 236.715 71.0017 232.881 64.715C229.125 58.3517 227.246 51.0683 227.246 42.865C227.246 34.6617 229.125 27.3783 232.881 21.015C236.715 14.6517 241.928 9.70666 248.521 6.18C255.191 2.65333 262.59 0.889995 270.716 0.889995C278.843 0.889995 286.165 2.65333 292.681 6.18C299.275 9.70666 304.45 14.6517 308.206 21.015C312.04 27.3783 313.956 34.6617 313.956 42.865C313.956 51.0683 312.04 58.3517 308.206 64.715C304.45 71.0017 299.275 75.9083 292.681 79.435C286.165 82.9617 278.843 84.725 270.716 84.725ZM270.716 62.415C274.243 62.415 277.425 61.6483 280.261 60.115C283.175 58.505 285.475 56.2433 287.161 53.33C288.848 50.34 289.691 46.8517 289.691 42.865C289.691 36.9617 287.89 32.2467 284.286 28.72C280.683 25.1933 276.16 23.43 270.716 23.43C265.196 23.43 260.596 25.1933 256.916 28.72C253.313 32.2467 251.511 36.9617 251.511 42.865C251.511 46.8517 252.355 50.34 254.041 53.33C255.728 56.2433 258.028 58.505 260.941 60.115C263.855 61.6483 267.113 62.415 270.716 62.415ZM46.46 164.725C37.5667 164.725 29.785 163.038 23.115 159.665C16.445 156.292 11.3083 151.462 7.705 145.175C4.10167 138.888 2.3 131.452 2.3 122.865C2.3 114.278 4.10167 106.842 7.705 100.555C11.3083 94.1917 16.445 89.3233 23.115 85.95C29.785 82.5767 37.5667 80.89 46.46 80.89C58.42 80.89 67.7733 83.1133 74.52 87.56V109.525C71.1467 106.995 67.3517 105.155 63.135 104.005C58.9183 102.855 54.05 102.28 48.53 102.28C41.3233 102.28 35.8417 104.082 32.085 107.685C28.405 111.288 26.565 116.348 26.565 122.865C26.565 129.688 28.3283 134.863 31.855 138.39C35.4583 141.84 40.6333 143.565 47.38 143.565C50.6767 143.565 53.36 143.105 55.43 142.185V131.95H44.39V116.885H77.165L77.165 157.135C69.0383 162.195 58.8033 164.725 46.46 164.725ZM84.1117 82.615H121.487C131.147 82.615 138.775 85.0683 144.372 89.975C149.968 94.805 152.767 101.82 152.767 111.02C152.767 117 151.502 122.098 148.972 126.315C146.518 130.532 142.992 133.752 138.392 135.975L151.847 163H127.467L115.737 139.425H107.917V163L84.1117 163L84.1117 82.615ZM116.772 120.565C120.452 120.565 123.288 119.875 125.282 118.495C127.352 117.038 128.387 114.547 128.387 111.02C128.387 107.493 127.352 105.04 125.282 103.66C123.288 102.203 120.452 101.475 116.772 101.475H107.917V120.565H116.772ZM184.427 82.615H207.312L239.397 163H215.017L209.037 147.705H182.702L176.607 163H152.227L184.427 82.615ZM203.517 129.65L195.812 107.11L188.107 129.65H203.517ZM4.6 162.615H41.63C51.29 162.615 58.9567 165.107 64.63 170.09C70.38 174.997 73.255 182.05 73.255 191.25C73.255 200.45 70.38 207.542 64.63 212.525C58.9567 217.508 51.29 220 41.63 220H28.405L28.405 243H4.6L4.6 162.615ZM37.145 201.14C40.825 201.14 43.7 200.412 45.77 198.955C47.84 197.498 48.875 194.93 48.875 191.25C48.875 187.647 47.84 185.117 45.77 183.66C43.7 182.203 40.825 181.475 37.145 181.475H28.405L28.405 201.14H37.145ZM79.058 162.615L102.863 162.615V192.17H129.658V162.615H153.463V243H129.658V212.18H102.863L102.863 243L79.058 243L79.058 162.615ZM189.638 212.41L160.313 162.615H185.728L201.598 190.33L218.503 162.615H243.803L213.443 212.41V243H189.638V212.41Z" fill="black"/>
</svg>
